<svg height="496pt" viewBox="0 0 496.02645 496" width="496pt" xmlns="http://www.w3.org/2000/svg"><path d="m488.027344 248.011719c0 132.550781-107.453125 240-240 240-132.550782 0-240-107.449219-240-240 0-132.546875 107.449218-240 240-240 132.546875 0 240 107.453125 240 240zm0 0" fill="#c2fb3b"/><g fill="#231f20"><path d="m248.027344 496.011719c136.964844 0 248-111.03125 248-248 0-136.964844-111.035156-248.0000002-248-248.0000002-4.417969 0-8 3.5820312-8 8.0000002s3.582031 8 8 8c108.738281-.046875 202.933594 75.402343 226.628906 181.523437 23.695312 106.125-29.460938 214.476563-127.890625 260.683594-98.429687 46.210938-215.746094 17.890625-282.257813-68.132812-66.507812-86.023438-64.382812-206.695313 5.117188-290.320313l13.601562 13.34375 52.960938-93.839844-92.800781 54.792969 14.769531 14.480469c-62.042969 73.796875-75.679688 176.871093-34.957031 264.261719 40.722656 87.390624 128.414062 143.246093 224.828125 143.207031zm0 0"/><path d="m114.371094 238.355469c-3.125 3.125-3.125 8.191406 0 11.3125l88 88c3.125 3.125 8.1875 3.125 11.3125 0l168-168c3.03125-3.136719 2.988281-8.128907-.097656-11.214844-3.085938-3.085937-8.078126-3.128906-11.214844-.097656l-162.34375 162.347656-82.34375-82.347656c-3.125-3.121094-8.1875-3.121094-11.3125 0zm0 0"/></g></svg>